<?xml version="1.0" encoding="UTF-8" standalone="no"?><!-- Generator: Gravit.io --><svg xmlns="http://www.w3.org/2000/svg" xmlns:xlink="http://www.w3.org/1999/xlink" style="isolation:isolate" viewBox="0 0 1417.323 2001.26" width="1417.323pt" height="2001.26pt"><defs><clipPath id="_clipPath_kekRkM38hHo8YUu0P2yZd6PgbBhcyVJo"><rect width="1417.323" height="2001.26"/></clipPath></defs><g clip-path="url(#_clipPath_kekRkM38hHo8YUu0P2yZd6PgbBhcyVJo)"><path d=" M 709.006 1.819 C 522.384 0.096 205.615 133.471 154.182 160.344 C 144.095 206.868 113.831 229.268 0.345 220.653 L 0.345 836.822 L 0.345 1774.872 Q 143.472 1759.354 154.282 1835.429 C 155.1 1841.187 509.769 1997.705 703.72 1997.705 C 727.652 1997.705 789.087 1997.088 911.282 1965.561 C 996.818 1943.492 1112.824 1908.281 1263.595 1838.983 C 1265.616 1838.054 1264.532 1825.029 1277.032 1806.978 C 1288.35 1793.606 1301.641 1787.344 1307.282 1786.314 Q 1339.362 1773.638 1418.282 1777.763 L 1418.282 223.444 Q 1273.782 238.645 1263.282 162.639 C 1263.782 162.164 929.343 1.501 709.006 1.819 Z " fill="rgb(241,220,191)" vector-effect="non-scaling-stroke" stroke-width="1" stroke="rgb(0,0,0)" stroke-linejoin="miter" stroke-linecap="square" stroke-miterlimit="3"/><path d=" M 709.016 34.349 C 528.173 32.682 221.214 161.71 171.375 187.707 C 161.599 232.714 132.273 254.385 22.301 246.05 L 22.301 842.136 L 22.301 1749.61 Q 160.996 1734.598 171.472 1808.194 C 172.264 1813.765 515.949 1965.18 703.893 1965.18 C 727.084 1965.18 786.617 1964.584 905.027 1934.084 C 987.914 1912.734 1100.327 1878.671 1246.429 1811.632 C 1248.388 1810.733 1247.337 1798.133 1259.45 1780.67 C 1270.417 1767.734 1283.297 1761.676 1288.763 1760.679 Q 1319.849 1748.417 1396.326 1752.407 L 1396.326 248.75 Q 1256.301 263.456 1246.126 189.927 C 1246.61 189.468 922.529 34.041 709.016 34.349 Z " fill="rgb(22,11,8)"/><path d=" M 709.025 64.842 C 533.599 63.227 235.836 188.179 187.49 213.355 C 178.008 256.94 149.56 277.926 42.883 269.854 L 42.883 847.108 L 42.883 1725.912 Q 177.423 1711.375 187.584 1782.645 C 188.353 1788.04 521.742 1934.672 704.055 1934.672 C 726.552 1934.672 784.301 1934.094 899.164 1904.558 C 979.567 1883.883 1088.613 1850.896 1230.338 1785.975 C 1232.238 1785.104 1231.219 1772.902 1242.969 1755.991 C 1253.608 1743.463 1266.101 1737.597 1271.404 1736.631 Q 1301.559 1724.757 1375.744 1728.621 L 1375.744 272.469 Q 1239.914 286.71 1230.044 215.504 C 1230.514 215.059 916.141 64.543 709.025 64.842 Z " fill="rgb(241,220,191)"/></g></svg>